<svg width="24" height="14" viewBox="0 0 24 14" fill="none" xmlns="http://www.w3.org/2000/svg">
<g id="Isolation_Mode" clip-path="url(#clip0_671_186)">
<path id="Vector" d="M9.01688 7.71287C10.1524 7.70529 11.1134 7.84826 11.8989 8.55335C12.0383 8.6779 12.1622 8.64216 12.3049 8.55226C13.2835 7.93815 14.3707 7.84176 15.4996 7.86234C17.3186 7.89591 19.0739 8.36381 20.8666 8.56959C21.5468 8.64757 22.227 8.70606 22.9127 8.71689C23.922 8.73206 24.2665 9.31692 23.7848 10.1964C22.3992 12.7276 20.2149 14.0024 17.3285 13.9937C15.368 13.9883 13.6795 13.2095 12.3257 11.7907C12.1008 11.5557 11.9867 11.5513 11.7585 11.7885C8.8205 14.8537 3.58737 14.8006 0.833667 11.1972C0.560491 10.8397 0.325713 10.4563 0.135916 10.0513C-0.212959 9.30284 0.126042 8.74938 0.966415 8.72231C1.70586 8.69848 2.44091 8.64757 3.17596 8.55551C4.44091 8.39738 5.67953 8.09845 6.94008 7.92082C7.67075 7.81793 8.40032 7.69337 9.01688 7.71179V7.71287Z" fill="#4A93FF"/>
<path id="Vector_2" d="M5.68204 5.98407C3.98593 5.98407 2.64638 4.67461 2.6387 3.00991C2.63102 1.34953 4.00897 -0.00216358 5.70618 2.59995e-06C7.39131 0.00216878 8.73744 1.32895 8.74402 2.99258C8.74951 4.67028 7.40448 5.98515 5.68204 5.98515V5.98407Z" fill="#4A93FF"/>
<path id="Vector_3" d="M18.3072 5.98406C16.5913 5.98406 15.2331 4.64753 15.2561 2.98174C15.2781 1.30945 16.6154 0 18.3028 0C19.9978 0 21.3944 1.36144 21.3571 3.02073C21.3121 5.00062 19.6226 6.09887 18.3072 5.98406Z" fill="#4A93FF"/>
</g>
<defs>
<clipPath id="clip0_671_186">
<rect width="24" height="14" fill="white"/>
</clipPath>
</defs>
</svg>
